# xmcd
#
# Track frame offsets: 
#        150
#        15984
#        31840
#        42607
#        55459
#        66580
#        80105
#        106482
#        117813
#        139348
#        152322
#        163915
#        176900
#        184653
#        194287
#
# Disc length: 2802 seconds
#
# Revision: 0
# Processed by: cddbd v1.5.2PL0 Copyright (c) Steve Scherf et al.
# Submitted via: ExactAudioCopyFreeDBPlugin 1.0
#
DISCID=d40af00f
DTITLE=AccustiCats - Hangover Blues
DYEAR=2008
DGENRE=Blues
TTITLE0=Rollin' and Tumblin'
TTITLE1=Bullfrog Blues
TTITLE2=Don't Worry Baby
TTITLE3=Lawdy Miss Clawdy
TTITLE4=New York
TTITLE5=Stuck In The Middle
TTITLE6=Blue On Black
TTITLE7=That's All Right
TTITLE8=Come Together
TTITLE9=All Right Now
TTITLE10=Room To Move
TTITLE11=Hard To Handle
TTITLE12=My Babe
TTITLE13=My Babe Left Me
TTITLE14=Willie and The Handjive
EXTD=
EXTT0=
EXTT1=
EXTT2=
EXTT3=
EXTT4=
EXTT5=
EXTT6=
EXTT7=
EXTT8=
EXTT9=
EXTT10=
EXTT11=
EXTT12=
EXTT13=
EXTT14=
PLAYORDER=
